<svg width="21" height="18" viewBox="0 0 21 18" fill="none" xmlns="http://www.w3.org/2000/svg">
<path d="M19.0196 0.00167666C18.7611 0.0137225 18.5177 0.0890085 18.3013 0.173329H18.2983C18.0789 0.260661 17.036 0.700333 15.4521 1.36586C13.8682 2.03441 11.8124 2.9017 9.77173 3.76298C5.6963 5.48251 1.68999 7.17495 1.68999 7.17495L1.73808 7.15688C1.73808 7.15688 1.46158 7.24722 1.17305 7.44598C1.02578 7.54235 0.863487 7.67485 0.72223 7.88264C0.580973 8.09043 0.466764 8.40964 0.508841 8.73789C0.577968 9.29501 0.938625 9.62928 1.1971 9.81298C1.45857 9.99969 1.70803 10.087 1.70803 10.087H1.71404L5.47089 11.3548C5.63919 11.8969 6.61597 15.1131 6.8504 15.8539C6.98865 16.2966 7.1239 16.5737 7.29221 16.7845C7.37335 16.8929 7.46953 16.9832 7.58374 17.0555C7.62882 17.0826 7.67691 17.1037 7.725 17.1218C7.74002 17.1308 7.75505 17.1338 7.77308 17.1368L7.73401 17.1278C7.74603 17.1308 7.75505 17.1398 7.76407 17.1428C7.79412 17.1519 7.81516 17.1549 7.85423 17.1609C8.44932 17.3416 8.92719 16.9712 8.92719 16.9712L8.95424 16.9501L11.1723 14.9264L14.8901 17.7843L14.9742 17.8204C15.7496 18.1607 16.5341 17.971 16.9488 17.6367C17.3666 17.2994 17.5289 16.8688 17.5289 16.8688L17.5559 16.7995L20.4292 2.05247C20.5103 1.68809 20.5313 1.34779 20.4412 1.01654C20.351 0.685276 20.1196 0.375096 19.8401 0.209467C19.5576 0.0408253 19.2781 -0.0103691 19.0196 0.00167666ZM18.9414 1.58269C18.9384 1.63087 18.9475 1.62485 18.9264 1.7182V1.72724L16.0802 16.3207C16.0682 16.3418 16.0472 16.387 15.9901 16.4321C15.93 16.4803 15.8819 16.5104 15.6324 16.4111L11.0851 12.9178L8.33811 15.4263L8.91516 11.7343C8.91516 11.7343 16.0382 5.08199 16.3447 4.7959C16.6513 4.50982 16.5491 4.44959 16.5491 4.44959C16.5701 4.10026 16.0862 4.3472 16.0862 4.3472L6.71816 10.1623L6.71515 10.1473L2.22497 8.63249V8.62948C2.22196 8.62948 2.21595 8.62647 2.21295 8.62647C2.21595 8.62647 2.23699 8.61743 2.23699 8.61743L2.26104 8.60539L2.28508 8.59635C2.28508 8.59635 6.29439 6.90392 10.3698 5.18438C12.4105 4.32311 14.4663 3.45581 16.0472 2.78727C17.628 2.12174 18.7972 1.63388 18.8633 1.60678C18.9264 1.58269 18.8964 1.58269 18.9414 1.58269Z" fill="#A6A6A6"/>
</svg>
