<svg width="21" height="12" viewBox="0 0 21 12" fill="none" xmlns="http://www.w3.org/2000/svg">
<path fill-rule="evenodd" clip-rule="evenodd" d="M20.0395 0.805263C20.1802 0.331579 20.0395 0 19.383 0H17.1946C16.6318 0 16.3817 0.3 16.241 0.631579C16.241 0.631579 15.1312 3.37895 13.5524 5.14737C13.0366 5.66842 12.8177 5.82632 12.5363 5.82632C12.3957 5.82632 12.1924 5.66842 12.1924 5.19474V0.805263C12.1924 0.236842 12.0361 0 11.5672 0H8.12823C7.78433 0 7.56549 0.268421 7.56549 0.505263C7.56549 1.0421 8.34707 1.16842 8.44086 2.65263V5.90526C8.44086 6.61579 8.31581 6.7421 8.03444 6.7421C7.29975 6.7421 5.48648 3.99474 4.42353 0.836843C4.20469 0.252632 4.00148 0 3.43874 0H1.25032C0.625053 0 0.5 0.3 0.5 0.631579C0.5 1.21579 1.23469 4.12105 3.95459 7.95789C5.76785 10.5789 8.31581 12 10.6293 12C12.0205 12 12.1924 11.6842 12.1924 11.1474V9.15789C12.1924 8.52632 12.3175 8.4 12.7708 8.4C13.0991 8.4 13.6462 8.55789 14.9436 9.82105C16.4286 11.3211 16.6787 12 17.5072 12H19.6956C20.3209 12 20.6335 11.6842 20.4459 11.0684C20.2427 10.4526 19.5393 9.55263 18.6014 8.47895C18.0856 7.86316 17.3196 7.21579 17.1008 6.88421C16.7725 6.45789 16.8663 6.26842 17.1008 5.90526C17.1008 5.88947 19.7738 2.1 20.0395 0.805263Z" fill="#A6A6A6"/>
</svg>
